<mxfile host="app.diagrams.net" modified="2024-02-21T11:16:52.000Z" agent="Mozilla/5.0 (X11; Linux x86_64) AppleWebKit/537.36 (KHTML, like Gecko) Chrome/121.0.0.0 Safari/537.36 Edg/121.0.0.0" version="23.1.1" etag="TDN1W0gKN3sYtjIUAQiz" type="github">
  <diagram name="Page-1" id="TvhATKprBQXyON5J7H_O">
    <mxGraphModel>
      <root>
        <mxCell id="0" />
        <mxCell id="1" parent="0" />
      </root>
    </mxGraphModel>
  </diagram>
</mxfile>
